<svg version="1.1" xmlns="http://www.w3.org/2000/svg" style="display: block;" viewBox="0 0 2048 2048" width="795" height="795" preserveAspectRatio="none">
<defs>
	<linearGradient id="Gradient1" gradientUnits="userSpaceOnUse" x1="1430.54" y1="735.534" x2="1398.7" y2="954.198">
		<stop class="stop0" offset="0" stop-opacity="1" stop-color="rgb(254,145,0)"/>
		<stop class="stop1" offset="1" stop-opacity="1" stop-color="rgb(255,196,3)"/>
	</linearGradient>
	<linearGradient id="Gradient2" gradientUnits="userSpaceOnUse" x1="1174.19" y1="621.908" x2="975.414" y2="1024.44">
		<stop class="stop0" offset="0" stop-opacity="1" stop-color="rgb(255,181,0)"/>
		<stop class="stop1" offset="1" stop-opacity="1" stop-color="rgb(253,118,24)"/>
	</linearGradient>
	<linearGradient id="Gradient3" gradientUnits="userSpaceOnUse" x1="1076.17" y1="1101.79" x2="1079.63" y2="1108.82">
		<stop class="stop0" offset="0" stop-opacity="1" stop-color="rgb(182,169,128)"/>
		<stop class="stop1" offset="1" stop-opacity="1" stop-color="rgb(218,202,150)"/>
	</linearGradient>
	<linearGradient id="Gradient4" gradientUnits="userSpaceOnUse" x1="215.069" y1="1431.14" x2="242.469" y2="1517.46">
		<stop class="stop0" offset="0" stop-opacity="1" stop-color="rgb(203,235,194)"/>
		<stop class="stop1" offset="1" stop-opacity="1" stop-color="rgb(197,244,231)"/>
	</linearGradient>
	<linearGradient id="Gradient5" gradientUnits="userSpaceOnUse" x1="315.519" y1="1363.34" x2="426.428" y2="1583.68">
		<stop class="stop0" offset="0" stop-opacity="1" stop-color="rgb(0,127,200)"/>
		<stop class="stop1" offset="1" stop-opacity="1" stop-color="rgb(22,180,231)"/>
	</linearGradient>
	<linearGradient id="Gradient6" gradientUnits="userSpaceOnUse" x1="457.923" y1="1434.96" x2="584.583" y2="1632.73">
		<stop class="stop0" offset="0" stop-opacity="1" stop-color="rgb(28,166,216)"/>
		<stop class="stop1" offset="1" stop-opacity="1" stop-color="rgb(92,195,235)"/>
	</linearGradient>
	<linearGradient id="Gradient7" gradientUnits="userSpaceOnUse" x1="194.881" y1="1553.96" x2="225.019" y2="1397.01">
		<stop class="stop0" offset="0" stop-opacity="1" stop-color="rgb(0,58,137)"/>
		<stop class="stop1" offset="1" stop-opacity="1" stop-color="rgb(0,90,171)"/>
	</linearGradient>
</defs>
<path transform="translate(0,0)" fill="rgb(255,255,255)" d="M 0 0 L 2048 0 L 2048 2048 L 0 2048 L 0 0 z"/>
<path transform="translate(0,0)" fill="rgb(12,149,213)" d="M 274.435 1162.74 C 279.312 1154.44 288.535 1142.24 294.234 1133.84 C 312.325 1107.17 332.285 1081.38 351.03 1055.21 L 487.644 863.738 L 632.165 663.403 C 668.084 613.288 715.826 535.339 765.367 500.747 C 847.094 443.68 988.969 451.367 1054.09 531.532 C 1064.24 544.038 1073.32 558.146 1082.28 571.819 L 1081.07 572.509 C 1064.09 553.837 1043.24 551.666 1020.13 557.738 C 973.881 574.732 954.061 620.658 927.831 659.867 C 909.249 687.644 885.53 722.556 870.845 752.3 C 859.362 770.999 845.873 789.184 833.347 807.275 C 810.809 840.055 788.026 872.666 765.002 905.107 L 724.926 961.183 C 719.098 969.311 708.469 985.002 702.342 991.882 L 521.224 1245.08 C 514.151 1255.04 473.999 1317.88 467.721 1322.27 C 458.819 1336.21 446.909 1352.56 437.375 1366.31 C 425.896 1382.87 409.774 1410.9 394.873 1422.85 C 389.764 1425.99 384.737 1429.13 379.509 1432.08 C 330.718 1458.68 281.263 1484.05 231.192 1508.15 C 207.361 1519.56 176.344 1535.61 151.445 1541.3 C 138.924 1544.25 125.851 1543.89 113.509 1540.27 C 81.3233 1530.71 56.7619 1502.66 62.441 1467.75 C 72.0291 1451.03 83.9838 1435.96 94.2581 1419.84 C 121.963 1376.39 153.763 1336.17 183.113 1293.99 L 245.1 1204.69 C 251.446 1195.53 267.931 1170.06 274.435 1162.74 z"/>
<path transform="translate(0,0)" fill="rgb(75,194,239)" d="M 702.342 991.882 C 701.901 987.52 707.012 982.197 709.661 978.483 L 734.613 943.894 C 737.138 940.407 744.952 929.995 746.603 926.742 C 744.187 924.81 745.479 925.621 741.757 925.258 C 738.302 921.943 746.328 908.691 742.566 899.295 L 740.532 899.958 L 739.996 898.03 C 744.896 888.351 738.143 872.375 737.997 860.104 C 732.39 856.194 732.793 847.094 730.04 841.993 C 718.897 821.341 720.496 815.287 721.654 793.375 C 723.255 763.05 728.54 740.258 745.732 714.313 C 750.602 706.964 754.686 696.065 760.06 688.702 C 764.774 681.309 771.216 674.61 776.666 667.843 C 797.894 641.489 826.828 618.547 856.837 602.946 C 860.955 600.804 865.206 596.612 869.474 594.432 C 892.109 582.874 916.726 573.879 941.616 568.647 C 950.756 566.688 979.083 562.564 986.265 567.236 C 987.172 570.709 986.443 569.771 988.531 572.254 C 997.752 565.701 1008.72 557.386 1020.13 557.738 C 973.881 574.732 954.061 620.658 927.831 659.867 C 909.249 687.644 885.53 722.556 870.845 752.3 C 859.362 770.999 845.873 789.184 833.347 807.275 C 810.809 840.055 788.026 872.666 765.002 905.107 L 724.926 961.183 C 719.098 969.311 708.469 985.002 702.342 991.882 z"/>
<path transform="translate(0,0)" fill="url(#Gradient7)" d="M 274.435 1162.74 L 275.83 1163.3 C 265.406 1180.82 251.767 1198.3 240.254 1215.19 C 217.125 1249.51 193.576 1283.55 169.61 1317.29 C 156.104 1335.98 141.32 1354.22 128.591 1373.3 C 121.727 1383.6 144.186 1411.05 153.593 1416.35 C 158.149 1418.91 166.468 1422.69 171.587 1423.32 C 172.704 1424.39 174.105 1425.73 175.788 1427.35 C 185.346 1429.16 202.014 1433.84 210.96 1434.56 C 210.737 1434.55 227.58 1432.65 228.47 1432.57 C 246.699 1430.87 269.204 1430.58 286.968 1428.34 C 313.319 1425.01 336.894 1415.3 364.169 1424.63 C 366.821 1427.8 365.266 1431.16 364.453 1435.23 L 365.501 1436.36 C 367.676 1435.47 377.509 1428.81 379.539 1426.74 L 379.509 1432.08 C 330.718 1458.68 281.263 1484.05 231.192 1508.15 C 207.361 1519.56 176.344 1535.61 151.445 1541.3 C 138.924 1544.25 125.851 1543.89 113.509 1540.27 C 81.3233 1530.71 56.7619 1502.66 62.441 1467.75 C 72.0291 1451.03 83.9838 1435.96 94.2581 1419.84 C 121.963 1376.39 153.763 1336.17 183.113 1293.99 L 245.1 1204.69 C 251.446 1195.53 267.931 1170.06 274.435 1162.74 z"/>
<path transform="translate(0,0)" fill="rgb(0,108,179)" d="M 379.539 1426.74 C 382.953 1424.53 395.659 1417.35 397.67 1414.93 C 414.732 1394.33 427.924 1369.88 444.689 1349.21 C 452.33 1339.8 458.762 1331.38 465.963 1321.77 L 467.721 1322.27 C 458.819 1336.21 446.909 1352.56 437.375 1366.31 C 425.896 1382.87 409.774 1410.9 394.873 1422.85 C 389.764 1425.99 384.737 1429.13 379.509 1432.08 L 379.539 1426.74 z"/>
<path transform="translate(0,0)" fill="url(#Gradient6)" d="M 1114.29 1094.86 C 1122.29 1103.47 1121.53 1117.23 1125.53 1128.52 C 1126.11 1130.13 1125.72 1131.05 1125.26 1132.63 C 1124.97 1136.08 1129.67 1151.86 1130.8 1156.98 L 1141.13 1204.73 C 1143.03 1213.83 1144.85 1226.58 1148.02 1235 C 1153.08 1248.42 1161.94 1262.81 1166.95 1276.27 L 1168.68 1277.05 C 1170.55 1277.91 1171.09 1278.2 1172.8 1279.44 C 1168 1280.96 1163.99 1285.01 1159.05 1286.92 C 1154.96 1288.51 1151.24 1292.29 1147.37 1294.28 C 1142.54 1296.6 1135.28 1296.61 1130.28 1298.65 C 1132.16 1299.2 1134.05 1299.74 1135.95 1300.27 C 1128.53 1305.66 1109.75 1315.48 1100.95 1320.08 L 1101.75 1321.51 C 1045.56 1355.6 988.187 1387.85 931.782 1421.71 C 915.027 1431.77 868.763 1461.02 851.367 1466.6 C 841.173 1472.3 831.072 1478.16 821.069 1484.19 C 803.665 1495.82 783.312 1506.89 765.023 1517.53 C 757.026 1522.18 737.713 1533.82 729.961 1537.13 C 715.017 1545.79 699.161 1555.92 684.287 1564.02 C 678.659 1568.6 629.05 1597.92 623.151 1599.52 C 608.026 1608.09 593.026 1616.87 578.157 1625.86 C 573.355 1629.87 556.996 1639.42 551.035 1643.16 C 524.051 1660.1 495.859 1676.2 468.262 1692.13 C 462.359 1695.54 436.479 1711.6 432.094 1713.41 C 420.851 1720.67 404.024 1731.74 392.202 1737.77 C 384.415 1742.97 348.021 1765.79 341.158 1768.35 C 319.171 1782.02 292.033 1795.02 267.043 1801 C 164.239 1825.64 44.5792 1735.61 22.1834 1636.8 C 14.4564 1599.4 17.6706 1560.56 31.4414 1524.94 C 37.1965 1509.37 46.0921 1485.73 56.3746 1473.25 C 57.3539 1470.67 60.014 1469.41 62.441 1467.75 C 56.7619 1502.66 81.3233 1530.71 113.509 1540.27 C 125.851 1543.89 138.924 1544.25 151.445 1541.3 C 176.344 1535.61 207.361 1519.56 231.192 1508.15 C 281.263 1484.05 330.718 1458.68 379.509 1432.08 C 384.737 1429.13 389.764 1425.99 394.873 1422.85 L 394.774 1426.87 C 396.822 1429.01 396.926 1428.32 400.754 1428.72 C 452.86 1402.81 504.708 1376.38 556.291 1349.44 C 578.09 1337.98 600.025 1326.77 622.091 1315.82 C 635.986 1308.77 654.537 1298.8 668.797 1293.46 C 675.064 1289.32 697.216 1279.04 705.191 1274.94 C 746.503 1253.9 788.317 1233.85 830.595 1214.81 C 838.645 1211.14 863.93 1198.37 870.734 1196.35 C 877.477 1192.07 913.169 1176.51 921.998 1172.57 C 956.553 1157.35 990.953 1141.78 1025.19 1125.87 L 1027.35 1128.56 C 1032.88 1127.14 1037.58 1123.49 1041.82 1123.22 L 1042.91 1125.79 C 1065.16 1117.15 1093.17 1102.35 1114.29 1094.86 z"/>
<path transform="translate(0,0)" fill="url(#Gradient5)" d="M 668.797 1293.46 C 675.079 1294.2 693.657 1283.95 699.506 1280.15 C 703.421 1281.42 703.929 1282.39 706.9 1281.27 C 707.456 1285.26 707.56 1286.2 708.884 1289.95 C 707.33 1292.88 706.005 1293.44 705.172 1296.64 C 701.389 1305.39 693.797 1309.24 688.289 1318.11 C 682.031 1328.2 671.966 1338.65 665.088 1348.43 C 643.491 1379.16 620.149 1406.89 591.769 1431.51 C 575.11 1445.97 561.275 1463.77 541.743 1475.61 C 537.789 1478.2 534.026 1483.03 529.97 1485.71 C 497.425 1506.41 468.181 1530.98 433.743 1549.08 C 429.784 1551.16 420.997 1558.68 418.286 1559.8 C 390.352 1571.39 373.568 1596.12 348.174 1610.95 C 347.294 1611.46 347.063 1615.02 345.073 1614.74 C 330.229 1622.04 316.162 1630.51 300.757 1636.84 C 300.73 1636.85 298.45 1640.55 298.567 1640.48 C 284.068 1649.39 272.322 1662.3 256.551 1668.77 C 250.916 1671.08 246.12 1677.48 239.27 1677.78 C 214.566 1685.79 190.878 1691.93 169.297 1706.43 C 149.609 1706.26 147.27 1710.99 129.339 1714.53 C 116.521 1717.06 84.2593 1708.12 73.6366 1715.57 C 73.4245 1718.53 74.0697 1717.46 72.4209 1719.27 C 65.6106 1716.04 68.2515 1713.7 61.5136 1712.13 C 50.2289 1694.99 38.6774 1679.3 32.0855 1659.4 C 30.8493 1655.66 25.7403 1637.31 23.9738 1635.89 L 22.1834 1636.8 C 14.4564 1599.4 17.6706 1560.56 31.4414 1524.94 C 37.1965 1509.37 46.0921 1485.73 56.3746 1473.25 C 57.3539 1470.67 60.014 1469.41 62.441 1467.75 C 56.7619 1502.66 81.3233 1530.71 113.509 1540.27 C 125.851 1543.89 138.924 1544.25 151.445 1541.3 C 176.344 1535.61 207.361 1519.56 231.192 1508.15 C 281.263 1484.05 330.718 1458.68 379.509 1432.08 C 384.737 1429.13 389.764 1425.99 394.873 1422.85 L 394.774 1426.87 C 396.822 1429.01 396.926 1428.32 400.754 1428.72 C 452.86 1402.81 504.708 1376.38 556.291 1349.44 C 578.09 1337.98 600.025 1326.77 622.091 1315.82 C 635.986 1308.77 654.537 1298.8 668.797 1293.46 z"/>
<path transform="translate(0,0)" fill="url(#Gradient4)" d="M 379.509 1432.08 C 384.737 1429.13 389.764 1425.99 394.873 1422.85 L 394.774 1426.87 C 396.822 1429.01 396.926 1428.32 400.754 1428.72 C 371.095 1445.98 339.782 1459.55 309.537 1475.74 C 280.473 1491.29 251.186 1505.64 221.368 1519.65 C 184.957 1536.76 150.706 1557.71 108.822 1546.78 C 89.8575 1541.99 73.6326 1529.74 63.8307 1512.81 C 58.8364 1504.19 56.0605 1495.42 54.2468 1485.67 C 54.791 1480.65 56.2934 1478.8 56.3746 1473.25 C 57.3539 1470.67 60.014 1469.41 62.441 1467.75 C 56.7619 1502.66 81.3233 1530.71 113.509 1540.27 C 125.851 1543.89 138.924 1544.25 151.445 1541.3 C 176.344 1535.61 207.361 1519.56 231.192 1508.15 C 281.263 1484.05 330.718 1458.68 379.509 1432.08 z"/>
<path transform="translate(0,0)" fill="rgb(0,108,179)" d="M 56.3746 1473.25 C 56.2934 1478.8 54.791 1480.65 54.2468 1485.67 C 47.9734 1491.62 37.072 1521.69 31.4414 1524.94 C 37.1965 1509.37 46.0921 1485.73 56.3746 1473.25 z"/>
<path transform="translate(0,0)" fill="rgb(154,186,174)" d="M 1114.29 1094.86 C 1122.29 1103.47 1121.53 1117.23 1125.53 1128.52 C 1126.11 1130.13 1125.72 1131.05 1125.26 1132.63 C 1124.97 1136.08 1129.67 1151.86 1130.8 1156.98 L 1141.13 1204.73 C 1143.03 1213.83 1144.85 1226.58 1148.02 1235 C 1153.08 1248.42 1161.94 1262.81 1166.95 1276.27 L 1168.68 1277.05 C 1170.55 1277.91 1171.09 1278.2 1172.8 1279.44 C 1168 1280.96 1163.99 1285.01 1159.05 1286.92 C 1154.96 1288.51 1151.24 1292.29 1147.37 1294.28 C 1142.54 1296.6 1135.28 1296.61 1130.28 1298.65 C 1132.16 1299.2 1134.05 1299.74 1135.95 1300.27 C 1128.53 1305.66 1109.75 1315.48 1100.95 1320.08 L 1101.75 1321.51 C 1045.56 1355.6 988.187 1387.85 931.782 1421.71 C 915.027 1431.77 868.763 1461.02 851.367 1466.6 C 841.173 1472.3 831.072 1478.16 821.069 1484.19 L 817.908 1482.94 C 817.254 1482.93 816.601 1482.91 815.947 1482.9 C 816.516 1484.35 816.28 1483.61 816.656 1485.12 C 805.977 1486.23 803.366 1494 795.253 1491.14 C 788.806 1488.87 790.285 1492.65 784.276 1495.71 L 782.284 1494.78 C 782.931 1492.28 783.554 1490.47 784.384 1488.04 L 783.583 1486.54 L 779.958 1486.06 L 779.494 1484.36 L 782.076 1479.92 L 781.399 1478.63 C 778.009 1478.56 779.157 1479.04 776.508 1477.45 C 777.339 1472.81 776.205 1473.11 773.279 1469.63 C 765.873 1467.83 774.241 1460.21 771.317 1454.99 L 768.603 1456.84 C 768.191 1454.4 768.6 1455.15 770.369 1451.98 C 762.168 1439.72 770.381 1440.37 772.649 1429.33 C 774.433 1420.65 775.854 1409.85 776.932 1400.97 C 775.523 1398.52 775.358 1398.61 775.05 1395.86 C 777 1393.3 778.162 1392.22 778.865 1389.06 C 777.86 1386.24 777.338 1385.37 777.237 1382.37 C 779.049 1381.44 779.037 1381.45 780.783 1380.24 C 782.044 1369.9 786.353 1360.92 787.958 1351.34 C 790.105 1338.53 793.119 1330.78 797.835 1318.89 C 799.892 1313.71 798.866 1303.1 800.993 1296.82 C 805.968 1282.13 812.911 1267.14 815.303 1251.83 C 816.096 1246.6 819.24 1240.81 820.753 1235.47 C 819.402 1232.54 819.146 1232.64 819.515 1229.52 C 822.094 1227.01 851.85 1214.46 858.937 1210.16 L 858.562 1210.11 C 861.13 1207.42 861.656 1206.99 864.656 1204.76 C 866.98 1201.83 872.656 1199.55 876.207 1197.9 L 870.734 1196.35 C 877.477 1192.07 913.169 1176.51 921.998 1172.57 C 956.553 1157.35 990.953 1141.78 1025.19 1125.87 L 1027.35 1128.56 C 1032.88 1127.14 1037.58 1123.49 1041.82 1123.22 L 1042.91 1125.79 C 1065.16 1117.15 1093.17 1102.35 1114.29 1094.86 z"/>
<path transform="translate(0,0)" fill="rgb(197,220,209)" d="M 1027.35 1128.56 C 1032.88 1127.14 1037.58 1123.49 1041.82 1123.22 L 1042.91 1125.79 C 1016.66 1138.13 990.255 1148.06 963.802 1160.3 L 892.414 1192.72 C 886.161 1195.49 870.367 1203.29 864.656 1204.76 C 866.98 1201.83 872.656 1199.55 876.207 1197.9 L 870.734 1196.35 C 877.477 1192.07 913.169 1176.51 921.998 1172.57 C 956.553 1157.35 990.953 1141.78 1025.19 1125.87 L 1027.35 1128.56 z"/>
<path transform="translate(0,0)" fill="rgb(117,138,137)" d="M 1025.19 1125.87 L 1027.35 1128.56 C 1009.33 1134.9 975.42 1151.71 956.613 1160.38 C 933.449 1171.05 897.865 1185.83 876.207 1197.9 L 870.734 1196.35 C 877.477 1192.07 913.169 1176.51 921.998 1172.57 C 956.553 1157.35 990.953 1141.78 1025.19 1125.87 z"/>
<path transform="translate(0,0)" fill="rgb(12,149,213)" d="M 817.908 1482.94 C 827.552 1479.38 840.884 1461.83 851.367 1466.6 C 841.173 1472.3 831.072 1478.16 821.069 1484.19 L 817.908 1482.94 z"/>
<path transform="translate(0,0)" fill="rgb(24,122,154)" d="M 22.1834 1636.8 L 23.9738 1635.89 C 25.7403 1637.31 30.8493 1655.66 32.0855 1659.4 C 38.6774 1679.3 50.2289 1694.99 61.5136 1712.13 C 71.1641 1722.84 81.2907 1734.87 91.7989 1744.54 C 150.856 1798.86 241.489 1819.5 314.105 1780.09 C 318.291 1777.82 336.293 1767.66 339.947 1766.97 L 341.158 1768.35 C 319.171 1782.02 292.033 1795.02 267.043 1801 C 164.239 1825.64 44.5792 1735.61 22.1834 1636.8 z"/>
<path transform="translate(0,0)" fill="rgb(24,122,154)" d="M 578.157 1625.86 L 578.753 1623.07 C 584.847 1618.1 616.002 1599.33 623.151 1599.52 C 608.026 1608.09 593.026 1616.87 578.157 1625.86 z"/>
<path transform="translate(0,0)" fill="rgb(24,122,154)" d="M 684.287 1564.02 C 684.91 1559.04 723.994 1537.1 729.961 1537.13 C 715.017 1545.79 699.161 1555.92 684.287 1564.02 z"/>
<path transform="translate(0,0)" fill="rgb(12,149,213)" d="M 392.202 1737.77 L 392.37 1736.43 C 394.592 1732.58 424.946 1715.73 430.515 1712.88 L 432.094 1713.41 C 420.851 1720.67 404.024 1731.74 392.202 1737.77 z"/>
<path transform="translate(0,0)" fill="rgb(254,148,4)" d="M 1385.35 1246.69 C 1390.77 1252.83 1394.55 1260.02 1398.25 1267.27 C 1424.65 1319.01 1446.48 1373.81 1470.89 1426.06 L 1515.4 1523.33 C 1519.29 1531.88 1533.23 1560.47 1535.48 1567.94 C 1540.59 1576.06 1546.22 1589.57 1550.3 1598.81 C 1560.25 1621.34 1570.47 1643.09 1580.28 1665.78 C 1592.67 1694.42 1619.42 1727.54 1612.1 1760.14 C 1607.15 1781.66 1584.3 1800.77 1562.32 1801.76 C 1534.7 1803.02 1506.49 1802.76 1478.8 1802.6 C 1453.9 1802.46 1426.65 1803.77 1402 1801.99 C 1395.67 1801.59 1389.4 1800.53 1383.3 1798.82 C 1327.45 1782.99 1303.45 1736.63 1281.89 1687.26 C 1265.6 1654.26 1250.19 1619.69 1234.47 1586.28 L 1190.13 1493.66 L 1162.09 1434.1 C 1156.05 1421.29 1148.64 1404.75 1141.45 1392.75 C 1153.45 1383.79 1169.37 1375.77 1182.58 1368.31 C 1201.98 1357.29 1221.3 1346.14 1240.55 1334.87 C 1278.13 1313.09 1315.38 1290.77 1352.3 1267.9 C 1363.53 1260.98 1373.86 1253.53 1385.35 1246.69 z"/>
<path transform="translate(0,0)" fill="rgb(250,174,28)" d="M 1535.48 1567.94 C 1540.59 1576.06 1546.22 1589.57 1550.3 1598.81 C 1560.25 1621.34 1570.47 1643.09 1580.28 1665.78 C 1592.67 1694.42 1619.42 1727.54 1612.1 1760.14 C 1607.15 1781.66 1584.3 1800.77 1562.32 1801.76 C 1534.7 1803.02 1506.49 1802.76 1478.8 1802.6 C 1453.9 1802.46 1426.65 1803.77 1402 1801.99 C 1395.67 1801.59 1389.4 1800.53 1383.3 1798.82 C 1327.45 1782.99 1303.45 1736.63 1281.89 1687.26 C 1282.4 1685.29 1282.31 1685 1282 1683.04 L 1281.7 1681.24 L 1282.62 1680.39 C 1289.53 1695.16 1296.41 1709.5 1304.08 1723.89 C 1308.42 1732.02 1312.24 1741.53 1317.35 1749.12 C 1321.54 1749.43 1318.54 1742.16 1322.52 1739.22 C 1324.84 1739.25 1331.87 1739.21 1333.72 1739.69 C 1340.11 1741.4 1346.38 1736.91 1353.05 1737.74 C 1377 1740.71 1401.12 1743.34 1424.79 1748.09 C 1425.58 1748.25 1430.23 1747.85 1430.99 1747.52 C 1432.56 1746.83 1435.08 1748.66 1436.55 1749.38 L 1433.22 1750.15 L 1433.13 1750.86 C 1436.21 1751.26 1448.6 1753.15 1450.32 1752.33 C 1461.47 1747.05 1476.24 1751.27 1488.55 1749.89 C 1490.94 1749.62 1501.37 1747.64 1502.9 1747.97 C 1510.19 1749.29 1521.51 1745.28 1528.93 1743.06 C 1548.63 1736.7 1571.1 1718.49 1569.96 1695.62 C 1569.64 1689.23 1569.78 1671.41 1575.87 1668.17 C 1580.1 1670.56 1580.38 1677.1 1583.38 1678.06 C 1581.86 1670.99 1575.82 1662.71 1573.94 1656.46 C 1567.72 1635.69 1537.65 1586.07 1535.48 1567.94 z"/>
<path transform="translate(0,0)" fill="rgb(250,174,28)" d="M 1225.33 1035.55 C 1421.07 948.5 1619.48 867.582 1820.26 792.915 C 1876.24 771.577 1931.21 746.651 1987.12 724.852 C 2015.15 713.893 2041.4 747.307 2026.88 772.24 C 2022.25 780.198 2008.41 791.986 2000.79 796.864 C 1902.99 859.436 1802.2 917.363 1702.64 977.067 C 1571.01 1056 1438.9 1133.37 1303.83 1206.34 C 1299.51 1208.68 1293.39 1212.77 1289.07 1214.47 C 1280.99 1220.54 1269.55 1226.52 1260.68 1231.72 C 1222.45 1254.14 1183.31 1274.93 1145.07 1297.38 C 1131.27 1305.48 1116.05 1314.58 1101.75 1321.51 L 1100.95 1320.08 C 1109.75 1315.48 1128.53 1305.66 1135.95 1300.27 C 1134.05 1299.74 1132.16 1299.2 1130.28 1298.65 C 1135.28 1296.61 1142.54 1296.6 1147.37 1294.28 C 1151.24 1292.29 1154.96 1288.51 1159.05 1286.92 C 1163.99 1285.01 1168 1280.96 1172.8 1279.44 C 1171.09 1278.2 1170.55 1277.91 1168.68 1277.05 L 1166.95 1276.27 C 1161.94 1262.81 1153.08 1248.42 1148.02 1235 C 1144.85 1226.58 1143.03 1213.83 1141.13 1204.73 L 1130.8 1156.98 C 1129.67 1151.86 1124.97 1136.08 1125.26 1132.63 C 1125.72 1131.05 1126.11 1130.13 1125.53 1128.52 C 1121.53 1117.23 1122.29 1103.47 1114.29 1094.86 C 1093.17 1102.35 1065.16 1117.15 1042.91 1125.79 L 1041.82 1123.22 C 1037.58 1123.49 1032.88 1127.14 1027.35 1128.56 L 1025.19 1125.87 C 1082.5 1098.05 1142.94 1073.55 1200.58 1046.16 C 1208.36 1042.47 1217.26 1038.52 1225.33 1035.55 z"/>
<path transform="translate(0,0)" fill="rgb(216,187,118)" d="M 1125.26 1132.63 C 1130.38 1136.36 1148.22 1180.22 1152.83 1193.89 C 1156.13 1203.68 1167.4 1263.86 1183.27 1271.61 C 1201.63 1266.23 1272.76 1218.35 1289.07 1214.47 C 1280.99 1220.54 1269.55 1226.52 1260.68 1231.72 C 1222.45 1254.14 1183.31 1274.93 1145.07 1297.38 C 1131.27 1305.48 1116.05 1314.58 1101.75 1321.51 L 1100.95 1320.08 C 1109.75 1315.48 1128.53 1305.66 1135.95 1300.27 C 1134.05 1299.74 1132.16 1299.2 1130.28 1298.65 C 1135.28 1296.61 1142.54 1296.6 1147.37 1294.28 C 1151.24 1292.29 1154.96 1288.51 1159.05 1286.92 C 1163.99 1285.01 1168 1280.96 1172.8 1279.44 C 1171.09 1278.2 1170.55 1277.91 1168.68 1277.05 L 1166.95 1276.27 C 1161.94 1262.81 1153.08 1248.42 1148.02 1235 C 1144.85 1226.58 1143.03 1213.83 1141.13 1204.73 L 1130.8 1156.98 C 1129.67 1151.86 1124.97 1136.08 1125.26 1132.63 z"/>
<path transform="translate(0,0)" fill="url(#Gradient3)" d="M 1025.19 1125.87 C 1082.5 1098.05 1142.94 1073.55 1200.58 1046.16 C 1208.36 1042.47 1217.26 1038.52 1225.33 1035.55 C 1212.27 1045.08 1129.79 1080.17 1129.26 1081.29 L 1132.98 1080.68 L 1133.41 1081.49 L 1130.37 1084.1 C 1135.62 1083.13 1135.74 1081.02 1140.34 1081.23 C 1138.85 1084.94 1119.34 1092.46 1114.29 1094.86 C 1093.17 1102.35 1065.16 1117.15 1042.91 1125.79 L 1041.82 1123.22 C 1037.58 1123.49 1032.88 1127.14 1027.35 1128.56 L 1025.19 1125.87 z"/>
<path transform="translate(0,0)" fill="url(#Gradient2)" d="M 1020.13 557.738 C 1043.24 551.666 1064.09 553.837 1081.07 572.509 L 1082.28 571.819 C 1110.94 609.085 1132.01 657.613 1152.98 700.216 C 1189.56 775.678 1225.12 851.633 1259.64 928.059 C 1247.76 934.798 1232.58 941.01 1219.88 946.671 C 1199.51 955.566 1179.32 964.889 1159.33 974.633 L 1071.33 1018.77 C 1054.17 1027.52 1030.05 1040.54 1012.71 1047.49 C 999.18 1021.61 987.485 994.346 974.751 968.055 C 940.594 897.534 909.37 824.888 872.144 755.99 L 870.845 752.3 C 885.53 722.556 909.249 687.644 927.831 659.867 C 954.061 620.658 973.881 574.732 1020.13 557.738 z"/>
<path transform="translate(0,0)" fill="rgb(254,247,190)" d="M 1020.13 557.738 C 1043.24 551.666 1064.09 553.837 1081.07 572.509 L 1082.39 574.876 L 1081.7 575.454 C 1063.23 565.078 1047.21 554.365 1024.45 561.624 C 984.351 574.418 962.861 614.052 942.088 646.675 C 926.751 670.761 911.822 692.493 897.662 717.425 C 893.301 725.104 877.394 751.451 872.144 755.99 L 870.845 752.3 C 885.53 722.556 909.249 687.644 927.831 659.867 C 954.061 620.658 973.881 574.732 1020.13 557.738 z"/>
<path transform="translate(0,0)" fill="url(#Gradient1)" d="M 1376.64 732.382 C 1446.74 721.363 1537.31 764.399 1565.73 830.15 C 1569.2 838.184 1578.23 865.983 1572.98 872.183 C 1562.07 885.061 1527.05 895.973 1511.19 902.097 C 1487.19 911.606 1463.12 920.915 1438.96 930.024 C 1419.72 937.697 1385.11 950.883 1365.24 952.484 C 1361.38 950.874 1357.7 948.843 1354.28 946.427 C 1346.88 941.261 1340.37 934.599 1334.91 927.434 C 1322.06 910.555 1262.44 811.05 1260.3 796.065 C 1259.63 791.332 1262.77 786.605 1265.65 783.134 C 1287.97 756.278 1342.8 736.252 1376.64 732.382 z"/>
<path transform="translate(0,0)" fill="rgb(0,108,179)" d="M 1780.98 1551.82 C 1792.81 1550.95 1813.81 1550.95 1825.55 1552.11 C 1833.33 1553.68 1840.98 1578.92 1844.11 1586.57 C 1854.29 1611.29 1864.26 1636.09 1874.02 1660.97 C 1891.99 1706.25 1915.56 1756.89 1930.05 1802.22 C 1909.51 1802.68 1888.96 1802.57 1868.43 1801.88 C 1860.27 1782.25 1856.02 1761.7 1849.16 1741.52 C 1827.95 1740.8 1806.73 1740.35 1785.5 1740.16 C 1775.77 1740.07 1758.76 1739.64 1749.3 1740.8 C 1742.06 1756.39 1731.86 1788.73 1724.82 1800.63 C 1706.92 1802.23 1687.66 1801.23 1669.63 1800.7 C 1673.64 1790.42 1678.55 1781.5 1683.01 1771.48 L 1731.71 1663.86 C 1741.18 1642.46 1750.52 1621.01 1759.72 1599.5 C 1763.82 1589.98 1769.99 1574.27 1774.54 1565.69 C 1776.4 1560.72 1778.61 1556.54 1780.98 1551.82 z"/>
<path transform="translate(0,0)" fill="rgb(0,3,13)" d="M 1780.98 1551.82 C 1792.81 1550.95 1813.81 1550.95 1825.55 1552.11 C 1816.45 1555.2 1786.16 1552.29 1781.52 1557.13 C 1779.57 1559.17 1776.98 1566.04 1774.54 1565.69 C 1776.4 1560.72 1778.61 1556.54 1780.98 1551.82 z"/>
<path transform="translate(0,0)" fill="rgb(255,255,255)" d="M 1803.71 1609.57 C 1806.5 1612.16 1832.83 1690.5 1839.23 1702.89 C 1826.16 1703.21 1811.91 1702.86 1798.75 1702.78 C 1787.2 1702.9 1775.64 1702.74 1764.1 1702.31 C 1776.68 1681.28 1790.4 1626.87 1803.71 1609.57 z"/>
<path transform="translate(0,0)" fill="rgb(254,148,4)" d="M 1529.41 1165.19 C 1532.29 1164.89 1535.83 1164.37 1538.57 1165.51 C 1561.23 1174.95 1619.13 1276.34 1630.4 1300.93 C 1627.46 1319.28 1619.38 1326.18 1601.97 1331.66 C 1594.59 1331.18 1585.24 1328.51 1580.68 1322.3 C 1553.57 1285.47 1530.54 1245 1505.93 1206.39 C 1503.5 1202.57 1499.7 1193.95 1501.38 1189.69 C 1505.93 1178.13 1518.5 1170.13 1529.41 1165.19 z"/>
<path transform="translate(0,0)" fill="rgb(254,148,4)" d="M 1656.19 1059.02 C 1672.27 1061.81 1701.89 1081.01 1718.4 1088.36 C 1739.16 1098.37 1759.88 1106.76 1779.46 1119.04 C 1807.51 1136.64 1801.32 1163.05 1772.76 1175.02 C 1756.93 1175.77 1735.16 1161.54 1721.35 1153.42 C 1696.68 1138.91 1671 1126.33 1646.69 1111.27 C 1636.35 1104.86 1626.65 1096.48 1631.72 1083.13 C 1636.1 1071.48 1645.33 1064.22 1656.19 1059.02 z"/>
<path transform="translate(0,0)" fill="rgb(254,148,4)" d="M 1493.81 518.176 C 1524.1 515.205 1539.1 532.356 1528.32 561.565 C 1517.35 591.892 1507.25 622.627 1495.93 652.823 C 1490.52 667.265 1487.92 676.835 1473.85 684.198 C 1469.83 685.495 1465.01 686.608 1460.9 685.476 C 1439.33 679.534 1434.83 664.323 1441.07 644.948 C 1451.57 612.267 1462.07 579.47 1473.25 547.018 C 1477.52 534.625 1482.12 524.896 1493.81 518.176 z"/>
<path transform="translate(0,0)" fill="rgb(254,148,4)" d="M 1695.23 640.129 C 1698.7 639.722 1702.89 639.549 1706.28 640.423 C 1713.77 642.412 1720.06 647.493 1723.58 654.397 C 1731.72 669.998 1721.38 682.609 1710.4 692.981 C 1696.3 706.291 1680.43 718.452 1665.3 730.628 C 1649.36 743.45 1632.93 760.157 1614.76 769.43 C 1603.21 771.073 1591.32 757.418 1586.46 748.728 C 1575.67 729.416 1619.48 700.42 1632.16 689.198 C 1647.45 675.663 1677.49 647.254 1695.23 640.129 z"/>
<path transform="translate(0,0)" fill="rgb(254,148,4)" d="M 1256.04 539.17 C 1291.8 534.218 1298.45 579.95 1311.45 604.299 C 1317.21 615.079 1322.21 627.302 1327.74 638.287 C 1339.23 661.132 1341.39 678.296 1314.28 690.288 C 1304.95 691.944 1296.42 689.031 1291.33 680.694 C 1271.75 648.572 1256.52 613.124 1239.5 579.521 C 1229.38 559.547 1235.62 547.472 1256.04 539.17 z"/>
</svg>